<svg xmlns="http://www.w3.org/2000/svg"><symbol id="icon-freedom" viewBox="0 0 490.412 425.89"><path d="M353.39 221.94l-46.19-80.15a5.078 5.078 0 00-4.39-2.54h-.02a5.08 5.08 0 00-4.39 2.52l-46.87 80.15a5.078 5.078 0 00.01 5.15l46.87 79.48a5.079 5.079 0 004.38 2.5h.02a5.073 5.073 0 004.38-2.53l46.19-79.48a5.105 5.105 0 00.01-5.1zm-50.63 71.96l-40.94-69.43 40.94-70.02 40.35 70.02zm244.22 263.61l-63.85-110.72c-.04-.07-.1-.13-.14-.2a3.72 3.72 0 00-.33-.45c-.09-.11-.19-.23-.29-.33-.13-.13-.27-.26-.41-.38-.11-.09-.22-.17-.33-.25a4.947 4.947 0 00-.49-.3c-.12-.06-.24-.13-.36-.18a4.817 4.817 0 00-.53-.2c-.15-.05-.29-.08-.44-.12a2.686 2.686 0 00-.27-.07L377.64 428a5.083 5.083 0 00-1.6 10.04l48.56 7.77 44.3 76.7a5.081 5.081 0 008.8-5.08l-40.17-69.55 38.01 6.08 62.64 108.62a5.078 5.078 0 008.8-5.07zM150.33 399.1a3.907 3.907 0 00.03.49c.02.16.04.32.07.48.04.18.09.36.14.53.03.08.04.17.07.26a.6.6 0 01.06.11 4.833 4.833 0 00.68 1.19c.05.07.11.12.17.19a5.071 5.071 0 00.87.8c.07.05.13.1.19.15a5.547 5.547 0 001.2.58c.09.03.17.04.26.07a5.74 5.74 0 00.56.14L239.54 417a5.083 5.083 0 001.53-10.05l-65.77-10 60.69-23.02a5.081 5.081 0 003.27-5.11l-5-70.01 32.08 63.16a5.093 5.093 0 004.54 2.78 5.149 5.149 0 002.3-.55 5.083 5.083 0 002.23-6.83l-43.43-85.51a4.976 4.976 0 00-4.88-2.85h-.05a1.551 1.551 0 00-.21.04 4.366 4.366 0 00-.79.14 5.056 5.056 0 00-1.79.91 4.35 4.35 0 00-.38.36c-.11.11-.23.2-.33.32a4.6 4.6 0 00-.32.45c-.08.12-.17.23-.25.36a4.278 4.278 0 00-.2.44 3.759 3.759 0 00-.2.46 4.371 4.371 0 00-.12.52c-.03.15-.08.29-.1.44a5.8 5.8 0 00-.03 1.02l6.52 91.32-75.26 28.55c-.1.04-.19.1-.29.14-.07.03-.14.07-.21.1a6.907 6.907 0 00-.65.38c-.07.05-.13.1-.19.15-.18.15-.36.3-.52.46-.08.08-.15.17-.23.26a4.17 4.17 0 00-.36.47c-.08.12-.15.26-.22.39-.08.15-.16.31-.23.47-.06.14-.1.29-.15.44-.05.17-.1.35-.14.53-.01.06-.04.12-.05.19-.01.09 0 .18-.01.27 0 .15-.02.33-.01.51zm138.14 76.56a5.1 5.1 0 00-6.22 3.61l-8.05 30.38-30.9-32.58a5.086 5.086 0 10-7.38 7l29.22 30.82h-68.33a5.076 5.076 0 00-3.47 1.37l-42.79 40.08a5.09 5.09 0 003.48 8.8h112.09a5.14 5.14 0 001.47-.24c.09-.03.17-.05.26-.08a5.181 5.181 0 001.25-.67c.07-.05.13-.11.2-.16a5.237 5.237 0 001-1.05.139.139 0 00.03-.04 4.949 4.949 0 00.64-1.4.845.845 0 00.06-.14l10.29-38.82a6.263 6.263 0 00.34-.55 5.014 5.014 0 00.36-2.09l10.07-38.02a5.088 5.088 0 00-3.62-6.22zm-89.63 49.39h71.29l-7.93 29.91h-95.3zm174.28-253.49a1.48 1.48 0 00-.13.21l-.03.05c-.01.01-.01.02-.02.03l-21.73 42.78c0 .01-.01.01-.01.02l-21.69 42.7c-.01.02-.01.03-.02.05a4.066 4.066 0 00-.22.58c-.04.12-.1.24-.14.37s-.05.29-.08.44c-.03.18-.07.35-.09.53-.01.11.01.21.01.32a4.659 4.659 0 00.02.65c.02.12.06.24.08.36a4.024 4.024 0 00.14.6c.03.1.09.2.13.3.09.21.17.42.28.62.01.01.01.03.02.04l30.57 52.31a5.078 5.078 0 108.77-5.12l-29.17-49.91 16.24-31.98 46.93 80.9a5.086 5.086 0 108.8-5.1l-50.24-86.6 16.23-31.96 67.32 116.86a5.085 5.085 0 008.81-5.08L381.96 271.6l-.01-.01-.03-.06c-.05-.08-.11-.15-.16-.23a5.447 5.447 0 00-.41-.57c-.11-.12-.23-.23-.35-.34a3.92 3.92 0 00-.37-.34 5.138 5.138 0 00-.55-.35c-.09-.05-.17-.12-.27-.17a.037.037 0 00-.03-.01 4.7 4.7 0 00-.74-.28c-.07-.02-.13-.06-.2-.08a5.052 5.052 0 00-3.29.24c-.18.08-.37.15-.54.24-.01.01-.02.01-.04.02-.1.06-.19.14-.28.2-.17.12-.35.23-.51.36a3.947 3.947 0 00-.35.36c-.11.12-.23.23-.33.36-.14.2-.26.41-.38.62zm-4.37 205.28a5.089 5.089 0 00-3.46-1.36h-47.55a5.08 5.08 0 000 10.16h45.56l31.48 29.23h-66.85a5.08 5.08 0 000 10.16h77.79l32.21 29.91H338.8a5.08 5.08 0 000 10.16h112.08a5.087 5.087 0 003.46-8.81zm-165.32 8.14a4.943 4.943 0 00.95-.72c.08-.08.15-.16.23-.25a5.267 5.267 0 00.58-.76 1.668 1.668 0 00.12-.16l27.17-47.55a5.081 5.081 0 00-5.21-7.54l-101.89 16.3c-.1.02-.19.05-.28.07a3.6 3.6 0 00-.44.12 4.649 4.649 0 00-.52.2c-.13.06-.25.12-.37.19a3.882 3.882 0 00-.48.3c-.12.08-.23.17-.34.26a4.854 4.854 0 00-.41.38 3.111 3.111 0 00-.29.33 4.84 4.84 0 00-.33.46c-.04.07-.1.12-.14.19L57.93 557.51a5.085 5.085 0 006.93 6.95L203.41 485a.021.021 0 01.02-.02zm-74.05-31.02l89.02-14.24-21.22 37.13-121.03 69.41z" transform="translate(-57.248 -139.25)"/></symbol><symbol id="icon-freedomhood" viewBox="0 0 231.7 12.8"><path d="M2.1 1.9v4.5H12v1.8H2.1v4.3H0V.2h13.1V2l-11-.1zm31.1 5.4c-.5.7-1.3 1.2-2.2 1.5l2.4 3.8h-2.5L28.6 9h-7v3.6h-2.1V.2h9.8c1 0 1.8.2 2.5.5s1.2.9 1.6 1.5c.4.7.6 1.5.6 2.4 0 1-.2 1.9-.8 2.7zm-11.6-.1h6.8c.7 0 1.2 0 1.7-.1s.9-.3 1.3-.7c.4-.4.5-1 .5-1.8s-.2-1.4-.5-1.8c-.4-.4-.8-.6-1.3-.7-.5-.1-1-.1-1.7-.1h-6.8v5.2zm21-5.3v3.6h11v1.8h-11v3.5h11v1.8H40.4V.2h13.1V2l-10.9-.1zm19.7 0v3.6h11v1.8h-11v3.5h11v1.8H60.1V.2h13.1V2l-10.9-.1zm29.5-1c1 .4 1.7 1.1 2.3 2.1s.8 2.1.8 3.4-.3 2.5-.8 3.4-1.3 1.6-2.2 2.1-2 .7-3.1.7h-8.9V.2h8.9c1.1 0 2.1.2 3 .7zm-1.2 9.5c.7-.2 1.3-.7 1.6-1.3s.5-1.5.5-2.7-.2-2.1-.5-2.7c-.4-.6-.9-1.1-1.6-1.3-.7-.2-1.7-.4-2.9-.4H82v8.9h5.7c1.2-.1 2.1-.2 2.9-.5zm12.6.7c-1.3-1.1-1.9-2.7-1.9-4.8 0-2 .6-3.6 1.9-4.7s3.2-1.6 5.9-1.6c2.6 0 4.6.5 5.9 1.7 1.3 1.1 1.9 2.7 1.9 4.7s-.6 3.6-1.9 4.7-3.2 1.7-5.9 1.7-4.6-.6-5.9-1.7zm10.2-1.1c.9-.7 1.4-1.9 1.4-3.6 0-1.1-.2-2-.6-2.7s-1-1.2-1.9-1.5c-.8-.3-1.9-.4-3.2-.4s-2.4.1-3.2.4c-.8.3-1.4.8-1.9 1.5-.4.7-.6 1.6-.6 2.7s.2 2 .6 2.7c.4.7 1 1.2 1.9 1.5.8.3 1.9.4 3.2.4 1.9 0 3.4-.4 4.3-1zm29.1 2.6h-2.1V2.3l-6.5 10.3h-1.8l-6.5-10.3v10.3h-2.1V.2h3.3l6.2 10 6.2-10h3.3v12.4zM165.9.2v12.4h-2.1V7.3h-12.2v5.3h-2.1V.2h2.1v5.3h12.2V.2h2.1zm8.5 10.9c-1.3-1.1-1.9-2.7-1.9-4.8 0-2 .6-3.6 1.9-4.7s3.2-1.6 5.9-1.6c2.6 0 4.6.5 5.9 1.7 1.3 1.1 1.9 2.7 1.9 4.7s-.6 3.6-1.9 4.7c-1.3 1.1-3.2 1.7-5.9 1.7s-4.6-.6-5.9-1.7zm10.2-1.1c.9-.7 1.4-1.9 1.4-3.6 0-1.1-.2-2-.6-2.7-.4-.7-1-1.2-1.9-1.5-.8-.3-1.9-.4-3.2-.4s-2.4.1-3.2.4-1.4.8-1.9 1.5c-.4.7-.6 1.6-.6 2.7s.2 2 .6 2.7c.4.7 1 1.2 1.9 1.5.8.3 1.9.4 3.2.4 2 0 3.4-.4 4.3-1zm11.8 1.1c-1.3-1.1-1.9-2.7-1.9-4.8 0-2 .6-3.6 1.9-4.7s3.2-1.6 5.9-1.6c2.6 0 4.6.5 5.9 1.7 1.3 1.1 1.9 2.7 1.9 4.7s-.6 3.6-1.9 4.7c-1.3 1.1-3.2 1.7-5.9 1.7s-4.6-.6-5.9-1.7zm10.2-1.1c.9-.7 1.4-1.9 1.4-3.6 0-1.1-.2-2-.6-2.7-.4-.7-1-1.2-1.9-1.5-.8-.3-1.9-.4-3.2-.4s-2.4.1-3.2.4-1.4.8-1.9 1.5c-.4.7-.6 1.6-.6 2.7s.2 2 .6 2.7c.4.7 1 1.2 1.9 1.5.8.3 1.9.4 3.2.4 2 0 3.4-.4 4.3-1zM228.7.9c.9.5 1.7 1.2 2.2 2.1s.8 2.1.8 3.4-.3 2.5-.8 3.4c-.5.9-1.3 1.6-2.2 2.1s-2 .7-3.1.7h-8.9V.2h8.9c1.1 0 2.2.2 3.1.7zm-1.3 9.5c.7-.2 1.3-.7 1.6-1.3s.5-1.5.5-2.7-.2-2.1-.5-2.7c-.4-.6-.9-1.1-1.6-1.3s-1.7-.4-2.9-.4h-5.7v8.9h5.7c1.2-.1 2.2-.2 2.9-.5z"/></symbol></svg>