<svg xmlns="http://www.w3.org/2000/svg"><symbol id="icon-freedomhood" viewBox="0 0 231.7 12.8"><path d="M2.1 1.9v4.5H12v1.8H2.1v4.3H0V.2h13.1V2l-11-.1zm31.1 5.4c-.5.7-1.3 1.2-2.2 1.5l2.4 3.8h-2.5L28.6 9h-7v3.6h-2.1V.2h9.8c1 0 1.8.2 2.5.5s1.2.9 1.6 1.5c.4.7.6 1.5.6 2.4 0 1-.2 1.9-.8 2.7zm-11.6-.1h6.8c.7 0 1.2 0 1.7-.1s.9-.3 1.3-.7c.4-.4.5-1 .5-1.8s-.2-1.4-.5-1.8c-.4-.4-.8-.6-1.3-.7-.5-.1-1-.1-1.7-.1h-6.8v5.2zm21-5.3v3.6h11v1.8h-11v3.5h11v1.8H40.4V.2h13.1V2l-10.9-.1zm19.7 0v3.6h11v1.8h-11v3.5h11v1.8H60.1V.2h13.1V2l-10.9-.1zm29.5-1c1 .4 1.7 1.1 2.3 2.1s.8 2.1.8 3.4-.3 2.5-.8 3.4-1.3 1.6-2.2 2.1-2 .7-3.1.7h-8.9V.2h8.9c1.1 0 2.1.2 3 .7zm-1.2 9.5c.7-.2 1.3-.7 1.6-1.3s.5-1.5.5-2.7-.2-2.1-.5-2.7c-.4-.6-.9-1.1-1.6-1.3-.7-.2-1.7-.4-2.9-.4H82v8.9h5.7c1.2-.1 2.1-.2 2.9-.5zm12.6.7c-1.3-1.1-1.9-2.7-1.9-4.8 0-2 .6-3.6 1.9-4.7s3.2-1.6 5.9-1.6c2.6 0 4.6.5 5.9 1.7 1.3 1.1 1.9 2.7 1.9 4.7s-.6 3.6-1.9 4.7-3.2 1.7-5.9 1.7-4.6-.6-5.9-1.7zm10.2-1.1c.9-.7 1.4-1.9 1.4-3.6 0-1.1-.2-2-.6-2.7s-1-1.2-1.9-1.5c-.8-.3-1.9-.4-3.2-.4s-2.4.1-3.2.4c-.8.3-1.4.8-1.9 1.5-.4.7-.6 1.6-.6 2.7s.2 2 .6 2.7c.4.7 1 1.2 1.9 1.5.8.3 1.9.4 3.2.4 1.9 0 3.4-.4 4.3-1zm29.1 2.6h-2.1V2.3l-6.5 10.3h-1.8l-6.5-10.3v10.3h-2.1V.2h3.3l6.2 10 6.2-10h3.3v12.4zM165.9.2v12.4h-2.1V7.3h-12.2v5.3h-2.1V.2h2.1v5.3h12.2V.2h2.1zm8.5 10.9c-1.3-1.1-1.9-2.7-1.9-4.8 0-2 .6-3.6 1.9-4.7s3.2-1.6 5.9-1.6c2.6 0 4.6.5 5.9 1.7 1.3 1.1 1.9 2.7 1.9 4.7s-.6 3.6-1.9 4.7c-1.3 1.1-3.2 1.7-5.9 1.7s-4.6-.6-5.9-1.7zm10.2-1.1c.9-.7 1.4-1.9 1.4-3.6 0-1.1-.2-2-.6-2.7-.4-.7-1-1.2-1.9-1.5-.8-.3-1.9-.4-3.2-.4s-2.4.1-3.2.4-1.4.8-1.9 1.5c-.4.7-.6 1.6-.6 2.7s.2 2 .6 2.7c.4.7 1 1.2 1.9 1.5.8.3 1.9.4 3.2.4 2 0 3.4-.4 4.3-1zm11.8 1.1c-1.3-1.1-1.9-2.7-1.9-4.8 0-2 .6-3.6 1.9-4.7s3.2-1.6 5.9-1.6c2.6 0 4.6.5 5.9 1.7 1.3 1.1 1.9 2.7 1.9 4.7s-.6 3.6-1.9 4.7c-1.3 1.1-3.2 1.7-5.9 1.7s-4.6-.6-5.9-1.7zm10.2-1.1c.9-.7 1.4-1.9 1.4-3.6 0-1.1-.2-2-.6-2.7-.4-.7-1-1.2-1.9-1.5-.8-.3-1.9-.4-3.2-.4s-2.4.1-3.2.4-1.4.8-1.9 1.5c-.4.7-.6 1.6-.6 2.7s.2 2 .6 2.7c.4.7 1 1.2 1.9 1.5.8.3 1.9.4 3.2.4 2 0 3.4-.4 4.3-1zM228.7.9c.9.5 1.7 1.2 2.2 2.1s.8 2.1.8 3.4-.3 2.5-.8 3.4c-.5.9-1.3 1.6-2.2 2.1s-2 .7-3.1.7h-8.9V.2h8.9c1.1 0 2.2.2 3.1.7zm-1.3 9.5c.7-.2 1.3-.7 1.6-1.3s.5-1.5.5-2.7-.2-2.1-.5-2.7c-.4-.6-.9-1.1-1.6-1.3s-1.7-.4-2.9-.4h-5.7v8.9h5.7c1.2-.1 2.2-.2 2.9-.5z"/></symbol></svg>