<?xml version="1.0" encoding="utf-8" ?>
<svg
  version="1.1"
  id="og:imgage"
  xmlns="http://www.w3.org/2000/svg"
  xmlns:xlink="http://www.w3.org/1999/xlink"
  x="0px"
  y="0px"
  viewBox="0 0 1280 640"
  style="enable-background:new 0 0 1280 640;"
  xml:space="preserve"
>
<style type="text/css">
.st0 {
  fill: #f7f2f2;
}
.st1 {
  fill: none;
  stroke: #f7f2f2;
  stroke-width: 3;
  stroke-linecap: round;
  stroke-linejoin: round;
}
.st2 {
  opacity: 0.2;
}
  </style>
<g>
	<rect x="0.5" y="0.5" width="1279" height="639" />
	<path d="M1279,1v638H1V1H1279 M1280,0H0v640h1280V0L1280,0z" />
</g>
<g>
	<g>
		<path class="st0" d="M278.03,422.5v14.32h31.5v5.73h-31.5v13.68h-6.68v-39.14h41.69v5.73L278.03,422.5L278.03,422.5z" />
		<path
        class="st0"
        d="M377,439.68c-1.59,2.23-4.14,3.82-7,4.77l7.64,12.09h-7.96l-7.32-11.46h-22.27v11.46h-6.68v-39.46h31.18
			c3.18,0,5.73,0.64,7.96,1.59c2.23,0.95,3.82,2.86,5.09,4.77c1.27,2.23,1.91,4.77,1.91,7.64
			C379.54,434.27,378.91,437.14,377,439.68z M340.08,439.36h21.64c2.23,0,3.82,0,5.41-0.32s2.86-0.95,4.14-2.23s1.59-3.18,1.59-5.73
			c0-2.55-0.64-4.46-1.59-5.73c-1.27-1.27-2.55-1.91-4.14-2.23s-3.18-0.32-5.41-0.32h-21.64
			C340.08,422.82,340.08,439.36,340.08,439.36z"
      />
		<path class="st0" d="M406.91,422.5v11.46h35v5.73h-35v11.14h35v5.73h-42v-39.46h41.69v5.73L406.91,422.5L406.91,422.5z" />
		<path class="st0" d="M469.6,422.5v11.46h35v5.73h-35v11.14h35v5.73h-42v-39.46h41.69v5.73L469.6,422.5L469.6,422.5z" />
		<path
        class="st0"
        d="M563.47,419.32c3.18,1.27,5.41,3.5,7.32,6.68s2.55,6.68,2.55,10.82s-0.95,7.96-2.55,10.82
			c-1.59,2.86-4.14,5.09-7,6.68s-6.36,2.23-9.86,2.23H525.6v-39.46h28.32C557.42,417.09,560.61,417.72,563.47,419.32z
			 M559.65,449.55c2.23-0.64,4.14-2.23,5.09-4.14c0.95-1.91,1.59-4.77,1.59-8.59c0-3.82-0.64-6.68-1.59-8.59
			c-1.27-1.91-2.86-3.5-5.09-4.14c-2.23-0.64-5.41-1.27-9.23-1.27h-18.14v28.32h18.14C554.24,450.82,557.11,450.5,559.65,449.55z"
      />
		<path
        class="st0"
        d="M599.75,451.77c-4.14-3.5-6.05-8.59-6.05-15.27c0-6.36,1.91-11.46,6.05-14.96c4.14-3.5,10.18-5.09,18.77-5.09
			c8.27,0,14.64,1.59,18.77,5.41c4.14,3.5,6.05,8.59,6.05,14.96c0,6.36-1.91,11.46-6.05,14.96c-4.14,3.5-10.18,5.41-18.77,5.41
			C609.93,457.18,603.88,455.27,599.75,451.77z M632.2,448.27c2.86-2.23,4.45-6.05,4.45-11.46c0-3.5-0.64-6.36-1.91-8.59
			c-1.27-2.23-3.18-3.82-6.05-4.77c-2.55-0.95-6.05-1.27-10.18-1.27c-4.14,0-7.64,0.32-10.18,1.27s-4.46,2.55-6.05,4.77
			c-1.27,2.23-1.91,5.09-1.91,8.59c0,3.5,0.64,6.36,1.91,8.59c1.27,2.23,3.18,3.82,6.05,4.77c2.55,0.95,6.05,1.27,10.18,1.27
			C624.57,451.45,629.34,450.18,632.2,448.27z"
      />
		<path
        class="st0"
        d="M724.8,456.55h-6.68v-32.78l-20.68,32.78h-5.73l-20.68-32.78v32.78h-6.68v-39.46h10.5l19.73,31.82
			l19.73-31.82h10.5V456.55L724.8,456.55z"
      />
		<path class="st0" d="M799.27,417.09v39.46h-6.68v-16.87h-38.82v16.87h-6.68v-39.46h6.68v16.87h38.82v-16.87H799.27z" />
		<path
        class="st0"
        d="M826.31,451.77c-4.14-3.5-6.05-8.59-6.05-15.27c0-6.36,1.91-11.46,6.05-14.96c4.14-3.5,10.18-5.09,18.77-5.09
			c8.27,0,14.64,1.59,18.77,5.41c4.14,3.5,6.05,8.59,6.05,14.96c0,6.36-1.91,11.46-6.05,14.96c-4.14,3.5-10.18,5.41-18.77,5.41
			C836.5,457.18,830.45,455.27,826.31,451.77z M858.77,448.27c2.86-2.23,4.46-6.05,4.46-11.46c0-3.5-0.64-6.36-1.91-8.59
			c-1.27-2.23-3.18-3.82-6.05-4.77c-2.55-0.95-6.05-1.27-10.18-1.27s-7.64,0.32-10.18,1.27s-4.45,2.55-6.05,4.77
			c-1.27,2.23-1.91,5.09-1.91,8.59c0,3.5,0.64,6.36,1.91,8.59c1.27,2.23,3.18,3.82,6.05,4.77c2.55,0.95,6.05,1.27,10.18,1.27
			C851.45,451.45,855.91,450.18,858.77,448.27z"
      />
		<path
        class="st0"
        d="M896.32,451.77c-4.14-3.5-6.05-8.59-6.05-15.27c0-6.36,1.91-11.46,6.05-14.96c4.14-3.5,10.18-5.09,18.77-5.09
			c8.27,0,14.64,1.59,18.77,5.41c4.14,3.5,6.05,8.59,6.05,14.96c0,6.36-1.91,11.46-6.05,14.96c-4.14,3.5-10.18,5.41-18.77,5.41
			C906.5,457.18,900.46,455.27,896.32,451.77z M928.78,448.27c2.86-2.23,4.45-6.05,4.45-11.46c0-3.5-0.64-6.36-1.91-8.59
			c-1.27-2.23-3.18-3.82-6.05-4.77c-2.55-0.95-6.05-1.27-10.18-1.27s-7.64,0.32-10.18,1.27c-2.55,0.95-4.46,2.55-6.05,4.77
			c-1.27,2.23-1.91,5.09-1.91,8.59c0,3.5,0.64,6.36,1.91,8.59c1.27,2.23,3.18,3.82,6.05,4.77c2.55,0.95,6.05,1.27,10.18,1.27
			C921.46,451.45,925.92,450.18,928.78,448.27z"
      />
		<path
        class="st0"
        d="M999.1,419.32c2.86,1.59,5.41,3.82,7,6.68s2.55,6.68,2.55,10.82s-0.95,7.96-2.55,10.82s-4.14,5.09-7,6.68
			s-6.36,2.23-9.86,2.23h-28.32v-39.46h28.32C992.74,417.09,996.24,417.72,999.1,419.32z M994.97,449.55
			c2.23-0.64,4.14-2.23,5.09-4.14c0.95-1.91,1.59-4.77,1.59-8.59c0-3.82-0.64-6.68-1.59-8.59c-1.27-1.91-2.86-3.5-5.09-4.14
			c-2.23-0.64-5.41-1.27-9.23-1.27H967.6v28.32h18.14C989.56,450.82,992.74,450.5,994.97,449.55z"
      />
	</g>
	<g>
		<polyline class="st1" points="618.12,220.53 640.24,257.77 661.88,220.53 640.24,182.82 618.12,220.53 		" />
		<line class="st1" x1="752.75" y1="378.08" x2="722.83" y2="326.04" />
		<line class="st1" x1="571.01" y1="302.49" x2="610.8" y2="308.54" />
		<line class="st1" x1="674.93" y1="318.4" x2="722.83" y2="326.04" />
		<polyline class="st1" points="592.34,340.68 527.25,378.08 557.17,326.04 		" />
		<line class="st1" x1="604.75" y1="243.77" x2="625.12" y2="284.03" />
		<polyline class="st1" points="571.01,302.49 607.93,288.48 604.75,243.77 		" />
		<line class="st1" x1="675.25" y1="243.77" x2="654.88" y2="284.03" />
		<line class="st1" x1="632.92" y1="340.68" x2="622.89" y2="378.08" />
		<line class="st1" x1="675.25" y1="243.77" x2="709.15" y2="302.49" />
		<polyline class="st1" points="656.11,378.32 710.45,378.32 669.33,340.12 646.56,340.12 		" />
		<line class="st1" x1="689.53" y1="359.22" x2="651.34" y2="359.22" />
		<line class="st1" x1="665.06" y1="263.82" x2="689.25" y2="305.67" />
		<line class="st1" x1="654.88" y1="284.03" x2="669.2" y2="308.54" />
		<polyline class="st1" points="622.69,378.32 569.89,378.32 590.28,359.22 628.47,359.22 610.67,340.29 		" />
		<line class="st1" x1="720.28" y1="359.3" x2="698.8" y2="322.22" />
		<polyline class="st1" points="557.17,326.04 605.07,318.4 592.34,340.68 		" />
	</g>
</g>
<g class="st2">
	<polyline class="st1" points="553.18,123.29 640.95,245.02 726.82,123.29 640.95,0 553.18,123.29 	" />
	<line class="st1" x1="1087.35" y1="638.3" x2="968.65" y2="468.19" />
	<line class="st1" x1="366.28" y1="391.2" x2="524.14" y2="410.97" />
	<line class="st1" x1="778.59" y1="443.22" x2="968.65" y2="468.19" />
	<polyline class="st1" points="450.89,516.05 192.65,638.3 311.35,468.19 	" />
	<line class="st1" x1="500.14" y1="199.24" x2="580.96" y2="330.86" />
	<polyline class="st1" points="366.28,391.2 512.77,345.42 500.14,199.24 	" />
	<line class="st1" x1="779.86" y1="199.24" x2="699.04" y2="330.86" />
	<line class="st1" x1="611.9" y1="516.05" x2="572.12" y2="638.3" />
	<line class="st1" x1="779.86" y1="199.24" x2="914.35" y2="391.2" />
	<polyline class="st1" points="707.22,640 919.51,640 756.37,515.15 663.02,515.15 	" />
	<line class="st1" x1="833.5" y1="577.57" x2="688.27" y2="577.57" />
	<line class="st1" x1="739.45" y1="264.79" x2="835.42" y2="401.6" />
	<line class="st1" x1="699.04" y1="330.86" x2="755.86" y2="410.97" />
	<polyline class="st1" points="574.62,640 361.82,640 442.73,577.57 594.27,577.57 523.63,515.68 	" />
	<line class="st1" x1="958.55" y1="576.92" x2="873.31" y2="455.71" />
	<polyline class="st1" points="311.35,468.19 501.41,443.22 450.89,516.05 	" />
</g>
</svg>
