<svg xmlns="http://www.w3.org/2000/svg" width="490.412" height="425.89" viewBox="0 0 490.412 425.89">
  <g id="freedom" transform="translate(-57.248 -139.25)">
    <path
      d="M353.39,221.94,307.2,141.79a5.078,5.078,0,0,0-4.39-2.54h-.02a5.08,5.08,0,0,0-4.39,2.52l-46.87,80.15a5.078,5.078,0,0,0,.01,5.15l46.87,79.48a5.079,5.079,0,0,0,4.38,2.5h.02a5.073,5.073,0,0,0,4.38-2.53l46.19-79.48A5.105,5.105,0,0,0,353.39,221.94ZM302.76,293.9l-40.94-69.43,40.94-70.02,40.35,70.02Z"
    />
    <path
      d="M546.98,557.51,483.13,446.79c-.04-.07-.1-.13-.14-.2a3.72,3.72,0,0,0-.33-.45c-.09-.11-.19-.23-.29-.33-.13-.13-.27-.26-.41-.38-.11-.09-.22-.17-.33-.25a4.947,4.947,0,0,0-.49-.3c-.12-.06-.24-.13-.36-.18a4.817,4.817,0,0,0-.53-.2c-.15-.05-.29-.08-.44-.12a2.686,2.686,0,0,0-.27-.07L377.64,428a5.083,5.083,0,0,0-1.6,10.04l48.56,7.77,44.3,76.7a5.081,5.081,0,0,0,8.8-5.08l-40.17-69.55,38.01,6.08,62.64,108.62a5.078,5.078,0,0,0,8.8-5.07Z"
    />
    <path
      d="M150.33,399.1a3.907,3.907,0,0,0,.03.49c.02.16.04.32.07.48.04.18.09.36.14.53.03.08.04.17.07.26a.6.6,0,0,1,.06.11,4.833,4.833,0,0,0,.68,1.19c.05.07.11.12.17.19a5.071,5.071,0,0,0,.87.8c.07.05.13.1.19.15a5.547,5.547,0,0,0,1.2.58c.09.03.17.04.26.07a5.74,5.74,0,0,0,.56.14L239.54,417a5.083,5.083,0,0,0,1.53-10.05l-65.77-10,60.69-23.02a5.081,5.081,0,0,0,3.27-5.11l-5-70.01,32.08,63.16a5.093,5.093,0,0,0,4.54,2.78,5.149,5.149,0,0,0,2.3-.55,5.083,5.083,0,0,0,2.23-6.83l-43.43-85.51a4.976,4.976,0,0,0-4.88-2.85h-.05a1.551,1.551,0,0,0-.21.04,4.366,4.366,0,0,0-.79.14,5.056,5.056,0,0,0-1.79.91,4.35,4.35,0,0,0-.38.36c-.11.11-.23.2-.33.32a4.6,4.6,0,0,0-.32.45c-.08.12-.17.23-.25.36a4.278,4.278,0,0,0-.2.44,3.759,3.759,0,0,0-.2.46,4.371,4.371,0,0,0-.12.52c-.03.15-.08.29-.1.44a5.8,5.8,0,0,0-.03,1.02l6.52,91.32-75.26,28.55c-.1.04-.19.1-.29.14-.07.03-.14.07-.21.1a6.907,6.907,0,0,0-.65.38c-.07.05-.13.1-.19.15-.18.15-.36.3-.52.46-.08.08-.15.17-.23.26a4.17,4.17,0,0,0-.36.47c-.08.12-.15.26-.22.39-.08.15-.16.31-.23.47-.06.14-.1.29-.15.44-.05.17-.1.35-.14.53-.01.06-.04.12-.05.19-.01.09,0,.18-.01.27C150.34,398.74,150.32,398.92,150.33,399.1Z"
    />
    <path
      d="M288.47,475.66a5.1,5.1,0,0,0-6.22,3.61l-8.05,30.38-30.9-32.58a5.086,5.086,0,1,0-7.38,7l29.22,30.82H196.81a5.076,5.076,0,0,0-3.47,1.37l-42.79,40.08a5.09,5.09,0,0,0,3.48,8.8H266.12a5.14,5.14,0,0,0,1.47-.24c.09-.03.17-.05.26-.08a5.181,5.181,0,0,0,1.25-.67c.07-.05.13-.11.2-.16a5.237,5.237,0,0,0,1-1.05.139.139,0,0,0,.03-.04,4.949,4.949,0,0,0,.64-1.4.845.845,0,0,0,.06-.14l10.29-38.82a6.263,6.263,0,0,0,.34-.55,5.014,5.014,0,0,0,.36-2.09l10.07-38.02A5.088,5.088,0,0,0,288.47,475.66Zm-89.63,49.39h71.29l-7.93,29.91H166.9Z"
    />
    <path
      d="M373.12,271.56a1.48,1.48,0,0,0-.13.21l-.03.05c-.01.01-.01.02-.02.03l-21.73,42.78c0,.01-.01.01-.01.02l-21.69,42.7c-.01.02-.01.03-.02.05a4.066,4.066,0,0,0-.22.58c-.04.12-.1.24-.14.37s-.05.29-.08.44c-.03.18-.07.35-.09.53-.01.11.01.21.01.32a4.659,4.659,0,0,0,.02.65c.02.12.06.24.08.36a4.024,4.024,0,0,0,.14.6c.03.1.09.2.13.3.09.21.17.42.28.62.01.01.01.03.02.04l30.57,52.31a5.078,5.078,0,1,0,8.77-5.12l-29.17-49.91,16.24-31.98,46.93,80.9a5.086,5.086,0,1,0,8.8-5.1l-50.24-86.6,16.23-31.96,67.32,116.86a5.085,5.085,0,0,0,8.81-5.08L381.96,271.6l-.01-.01-.03-.06c-.05-.08-.11-.15-.16-.23a5.447,5.447,0,0,0-.41-.57c-.11-.12-.23-.23-.35-.34a3.92,3.92,0,0,0-.37-.34,5.138,5.138,0,0,0-.55-.35c-.09-.05-.17-.12-.27-.17a.037.037,0,0,0-.03-.01,4.7,4.7,0,0,0-.74-.28c-.07-.02-.13-.06-.2-.08a5.052,5.052,0,0,0-3.29.24c-.18.08-.37.15-.54.24-.01.01-.02.01-.04.02-.1.06-.19.14-.28.2-.17.12-.35.23-.51.36a3.947,3.947,0,0,0-.35.36c-.11.12-.23.23-.33.36C373.36,271.14,373.24,271.35,373.12,271.56Z"
    />
    <path
      d="M368.75,476.84a5.089,5.089,0,0,0-3.46-1.36H317.74a5.08,5.08,0,0,0,0,10.16H363.3l31.48,29.23H327.93a5.08,5.08,0,0,0,0,10.16h77.79l32.21,29.91H338.8a5.08,5.08,0,0,0,0,10.16H450.88a5.087,5.087,0,0,0,3.46-8.81Z"
    />
    <path
      d="M203.43,484.98h0a4.943,4.943,0,0,0,.95-.72c.08-.08.15-.16.23-.25a5.267,5.267,0,0,0,.58-.76,1.668,1.668,0,0,0,.12-.16l27.17-47.55a5.081,5.081,0,0,0-5.21-7.54L125.38,444.3c-.1.02-.19.05-.28.07a3.6,3.6,0,0,0-.44.12,4.649,4.649,0,0,0-.52.2c-.13.06-.25.12-.37.19a3.882,3.882,0,0,0-.48.3c-.12.08-.23.17-.34.26a4.854,4.854,0,0,0-.41.38,3.111,3.111,0,0,0-.29.33,4.84,4.84,0,0,0-.33.46c-.04.07-.1.12-.14.19L57.93,557.51a5.085,5.085,0,0,0,6.93,6.95L203.41,485A.021.021,0,0,1,203.43,484.98Zm-74.05-31.02,89.02-14.24-21.22,37.13L76.15,546.26Z"
    />
  </g>
</svg>
