<?xml version="1.0" encoding="utf-8" ?>
<svg
  version="1.1"
  id="freedomhood"
  xmlns="http://www.w3.org/2000/svg"
  xmlns:xlink="http://www.w3.org/1999/xlink"
  x="0px"
  y="0px"
  viewBox="0 0 231.7 12.8"
  style="enable-background:new 0 0 231.7 12.8;"
  xml:space="preserve"
>
<g>
	<path d="M2.1,1.9v4.5H12v1.8H2.1v4.3H0V0.2h13.1V2L2.1,1.9L2.1,1.9z" />
	<path
      d="M33.2,7.3C32.7,8,31.9,8.5,31,8.8l2.4,3.8h-2.5L28.6,9h-7v3.6h-2.1V0.2h9.8c1,0,1.8,0.2,2.5,0.5s1.2,0.9,1.6,1.5
		C33.8,2.9,34,3.7,34,4.6C34,5.6,33.8,6.5,33.2,7.3z M21.6,7.2h6.8c0.7,0,1.2,0,1.7-0.1s0.9-0.3,1.3-0.7c0.4-0.4,0.5-1,0.5-1.8
		s-0.2-1.4-0.5-1.8c-0.4-0.4-0.8-0.6-1.3-0.7C29.6,2,29.1,2,28.4,2h-6.8C21.6,2,21.6,7.2,21.6,7.2z"
    />
	<path d="M42.6,1.9v3.6h11v1.8h-11v3.5h11v1.8H40.4V0.2h13.1V2L42.6,1.9L42.6,1.9z" />
	<path d="M62.3,1.9v3.6h11v1.8h-11v3.5h11v1.8H60.1V0.2h13.1V2L62.3,1.9L62.3,1.9z" />
	<path
      d="M91.8,0.9c1,0.4,1.7,1.1,2.3,2.1s0.8,2.1,0.8,3.4s-0.3,2.5-0.8,3.4s-1.3,1.6-2.2,2.1s-2,0.7-3.1,0.7h-8.9V0.2h8.9
		C89.9,0.2,90.9,0.4,91.8,0.9z M90.6,10.4c0.7-0.2,1.3-0.7,1.6-1.3s0.5-1.5,0.5-2.7s-0.2-2.1-0.5-2.7c-0.4-0.6-0.9-1.1-1.6-1.3
		C89.9,2.2,88.9,2,87.7,2H82v8.9h5.7C88.9,10.8,89.8,10.7,90.6,10.4z"
    />
	<path
      d="M103.2,11.1c-1.3-1.1-1.9-2.7-1.9-4.8c0-2,0.6-3.6,1.9-4.7s3.2-1.6,5.9-1.6c2.6,0,4.6,0.5,5.9,1.7c1.3,1.1,1.9,2.7,1.9,4.7
		s-0.6,3.6-1.9,4.7s-3.2,1.7-5.9,1.7C106.4,12.8,104.5,12.2,103.2,11.1z M113.4,10c0.9-0.7,1.4-1.9,1.4-3.6c0-1.1-0.2-2-0.6-2.7
		s-1-1.2-1.9-1.5c-0.8-0.3-1.9-0.4-3.2-0.4s-2.4,0.1-3.2,0.4c-0.8,0.3-1.4,0.8-1.9,1.5c-0.4,0.7-0.6,1.6-0.6,2.7s0.2,2,0.6,2.7
		c0.4,0.7,1,1.2,1.9,1.5c0.8,0.3,1.9,0.4,3.2,0.4C111,11,112.5,10.6,113.4,10z"
    />
	<path d="M142.5,12.6h-2.1V2.3l-6.5,10.3h-1.8l-6.5-10.3v10.3h-2.1V0.2h3.3l6.2,10l6.2-10h3.3V12.6L142.5,12.6z" />
	<path d="M165.9,0.2v12.4h-2.1V7.3h-12.2v5.3h-2.1V0.2h2.1v5.3h12.2V0.2H165.9z" />
	<path
      d="M174.4,11.1c-1.3-1.1-1.9-2.7-1.9-4.8c0-2,0.6-3.6,1.9-4.7s3.2-1.6,5.9-1.6c2.6,0,4.6,0.5,5.9,1.7c1.3,1.1,1.9,2.7,1.9,4.7
		s-0.6,3.6-1.9,4.7c-1.3,1.1-3.2,1.7-5.9,1.7C177.6,12.8,175.7,12.2,174.4,11.1z M184.6,10c0.9-0.7,1.4-1.9,1.4-3.6
		c0-1.1-0.2-2-0.6-2.7c-0.4-0.7-1-1.2-1.9-1.5c-0.8-0.3-1.9-0.4-3.2-0.4s-2.4,0.1-3.2,0.4s-1.4,0.8-1.9,1.5
		c-0.4,0.7-0.6,1.6-0.6,2.7s0.2,2,0.6,2.7c0.4,0.7,1,1.2,1.9,1.5c0.8,0.3,1.9,0.4,3.2,0.4C182.3,11,183.7,10.6,184.6,10z"
    />
	<path
      d="M196.4,11.1c-1.3-1.1-1.9-2.7-1.9-4.8c0-2,0.6-3.6,1.9-4.7s3.2-1.6,5.9-1.6c2.6,0,4.6,0.5,5.9,1.7c1.3,1.1,1.9,2.7,1.9,4.7
		s-0.6,3.6-1.9,4.7c-1.3,1.1-3.2,1.7-5.9,1.7C199.6,12.8,197.7,12.2,196.4,11.1z M206.6,10c0.9-0.7,1.4-1.9,1.4-3.6
		c0-1.1-0.2-2-0.6-2.7c-0.4-0.7-1-1.2-1.9-1.5c-0.8-0.3-1.9-0.4-3.2-0.4s-2.4,0.1-3.2,0.4s-1.4,0.8-1.9,1.5
		c-0.4,0.7-0.6,1.6-0.6,2.7s0.2,2,0.6,2.7c0.4,0.7,1,1.2,1.9,1.5c0.8,0.3,1.9,0.4,3.2,0.4C204.3,11,205.7,10.6,206.6,10z"
    />
	<path
      d="M228.7,0.9c0.9,0.5,1.7,1.2,2.2,2.1s0.8,2.1,0.8,3.4s-0.3,2.5-0.8,3.4c-0.5,0.9-1.3,1.6-2.2,2.1s-2,0.7-3.1,0.7h-8.9V0.2
		h8.9C226.7,0.2,227.8,0.4,228.7,0.9z M227.4,10.4c0.7-0.2,1.3-0.7,1.6-1.3s0.5-1.5,0.5-2.7s-0.2-2.1-0.5-2.7
		c-0.4-0.6-0.9-1.1-1.6-1.3S225.7,2,224.5,2h-5.7v8.9h5.7C225.7,10.8,226.7,10.7,227.4,10.4z"
    />
</g>
</svg>
